<svg width="34" height="34" viewBox="0 0 34 34" fill="none" xmlns="http://www.w3.org/2000/svg">
<path fill-rule="evenodd" clip-rule="evenodd" d="M18.55 8H20.85C22.1624 8 22.8186 8 23.2786 8.33422C23.4272 8.44216 23.5578 8.57281 23.6658 8.72138C24 9.18139 24 9.83759 24 11.15V19.95C24 21.2624 24 21.9186 23.6658 22.3786C23.5578 22.5272 23.4272 22.6578 23.2786 22.7658C22.8186 23.1 22.1624 23.1 20.85 23.1H10V16.55C10 12.9878 10 11.2066 10.9072 9.95802C11.2001 9.55477 11.5548 9.20015 11.958 8.90717C13.2066 8 14.9878 8 18.55 8ZM14 11.25C13.5858 11.25 13.25 11.5858 13.25 12C13.25 12.4142 13.5858 12.75 14 12.75H20C20.4142 12.75 20.75 12.4142 20.75 12C20.75 11.5858 20.4142 11.25 20 11.25H14ZM14 14.25C13.5858 14.25 13.25 14.5858 13.25 15C13.25 15.4142 13.5858 15.75 14 15.75H18C18.4142 15.75 18.75 15.4142 18.75 15C18.75 14.5858 18.4142 14.25 18 14.25H14Z" fill="#292556"/>
<path d="M10 24V15.2C10 12.2002 10 10.7003 10.7639 9.64886C11.0107 9.30928 11.3093 9.01065 11.6489 8.76393C12.7003 8 14.2002 8 17.2 8H22.2C22.9499 8 23.3249 8 23.5878 8.19098C23.6727 8.25266 23.7473 8.32732 23.809 8.41221C24 8.67508 24 9.05005 24 9.8V24M11.5 26H22.5C22.9659 26 23.1989 26 23.3827 25.9239C23.6277 25.8224 23.8224 25.6277 23.9239 25.3827C24 25.1989 24 24.9659 24 24.5V24.5C24 24.0341 24 23.8011 23.9239 23.6173C23.8224 23.3723 23.6277 23.1776 23.3827 23.0761C23.1989 23 22.9659 23 22.5 23H11.5C10.6716 23 10 23.6716 10 24.5V24.5C10 25.3284 10.6716 26 11.5 26Z" stroke="#292556" stroke-width="1.5" stroke-linecap="round" stroke-linejoin="round"/>
</svg>
