<svg width="34" height="34" viewBox="0 0 34 34" fill="none" xmlns="http://www.w3.org/2000/svg">
<path d="M10.0762 9.2314C12.9877 6.61109 14.4434 5.30093 16.1603 5.04748C16.7171 4.96529 17.2829 4.96529 17.8397 5.04748C19.5566 5.30093 21.0123 6.61109 23.9238 9.23141L28.0207 12.9186C29.3226 14.0904 29.9736 14.6762 30.3812 15.4175C30.5159 15.6624 30.6298 15.9181 30.7217 16.1821C31 16.9809 31 17.8567 31 19.6083V26.3333C31 27.1852 31 27.6111 30.9311 27.9655C30.6394 29.4661 29.4661 30.6394 27.9655 30.9311C27.6111 31 27.1852 31 26.3333 31V31C25.4815 31 25.0556 31 24.7011 30.9311C23.2006 30.6394 22.0272 29.4661 21.7356 27.9655C21.6667 27.6111 21.6667 27.1852 21.6667 26.3333V25.8667C21.6667 25.0148 21.6667 24.5889 21.5978 24.2345C21.3061 22.7339 20.1328 21.5606 18.6322 21.2689C18.2778 21.2 17.8518 21.2 17 21.2V21.2C16.1482 21.2 15.7222 21.2 15.3678 21.2689C13.8672 21.5606 12.6939 22.7339 12.4022 24.2345C12.3333 24.5889 12.3333 25.0148 12.3333 25.8667V26.3333C12.3333 27.1852 12.3333 27.6111 12.2644 27.9655C11.9728 29.4661 10.7994 30.6394 9.29887 30.9311C8.94442 31 8.5185 31 7.66667 31V31C6.81483 31 6.38892 31 6.03447 30.9311C4.5339 30.6394 3.36058 29.4661 3.0689 27.9655C3 27.6111 3 27.1852 3 26.3333V19.6083C3 17.8567 3 16.9809 3.27826 16.1821C3.3702 15.9181 3.48411 15.6624 3.61879 15.4175C4.02641 14.6762 4.67738 14.0904 5.97932 12.9186L10.0762 9.2314Z" fill="white"/>
</svg>
