<svg width="34" height="34" viewBox="0 0 34 34" fill="none" xmlns="http://www.w3.org/2000/svg">
<path fill-rule="evenodd" clip-rule="evenodd" d="M3 16.9999C3 9.26798 9.26801 3 17 3C24.7319 3 31 9.26798 31 16.9999C31 23.6992 26.2943 29.2995 20.0081 30.6759C19.0396 30.8882 18.0332 31 17 31C15.9753 31 14.977 30.89 14.0158 30.6811C7.71754 29.3137 3 23.7077 3 16.9999ZM20.5822 28.6444C19.4496 28.9924 18.2467 29.1797 17 29.1797C15.7603 29.1797 14.5638 28.9945 13.4368 28.6502C11.8523 28.1654 10.4062 27.3646 9.16687 26.3188C9.38234 25.5475 9.96097 24.7396 11.0001 24.0398C12.613 22.9693 14.7893 22.4065 17.0098 22.4065C19.2314 22.4065 21.4004 22.9698 22.9989 24.0391C24.0387 24.7391 24.6176 25.5472 24.8331 26.3188C23.5988 27.3604 22.1592 28.159 20.5822 28.6444ZM26.2387 24.9371C25.7746 24.0224 25.0118 23.1997 24.0138 22.5282L24.0118 22.5268C22.0499 21.2141 19.5068 20.5864 17.0098 20.5864C14.5125 20.5864 11.9644 21.2142 9.99078 22.5251C9.98927 22.5261 9.98776 22.5271 9.98625 22.5282C8.98821 23.1997 8.22537 24.0224 7.76131 24.9372C5.92813 22.8054 4.82015 20.032 4.82015 16.9999C4.82015 10.2732 10.2733 4.82014 17 4.82014C23.7267 4.82014 29.1799 10.2732 29.1799 16.9999C29.1799 20.032 28.0719 22.8054 26.2387 24.9371ZM17 10.3571C15.1221 10.3571 13.6165 11.8721 13.6165 13.7405C13.6165 15.546 15.0284 17.0179 16.8161 17.1089C16.9358 17.0989 17.0637 17.098 17.1872 17.1088C18.9679 17.0162 20.3719 15.5496 20.3834 13.738C20.382 11.8725 18.8658 10.3571 17 10.3571ZM11.7964 13.7405C11.7964 10.8704 14.1132 8.53699 17 8.53699C19.8719 8.53699 22.2036 10.8686 22.2036 13.7405C22.2036 13.7422 22.2036 13.744 22.2036 13.7457C22.1877 16.546 19.9853 18.8351 17.1881 18.9305C17.1353 18.9323 17.0824 18.9295 17.0301 18.9221C17.0301 18.9221 17.028 18.9219 17.0259 18.9218C17.0209 18.9215 17.0138 18.9212 17.0049 18.9212C16.9861 18.9212 16.9682 18.9224 16.9558 18.924C16.9081 18.93 16.86 18.9321 16.8119 18.9305C14.0193 18.8353 11.7964 16.5495 11.7964 13.7405Z" fill="white"/>
<rect x="13.0513" y="10.1795" width="7.89744" height="7.17949" rx="3.58974" fill="white"/>
<rect x="8.02563" y="22.3846" width="17.2308" height="7.17949" rx="3.58974" fill="white"/>
</svg>
