<svg width="56" height="56" viewBox="0 0 56 56" fill="none" xmlns="http://www.w3.org/2000/svg">
<path fill-rule="evenodd" clip-rule="evenodd" d="M20.8 42.4H15.4C14.4064 42.4 13.6 41.5936 13.6 40.6C13.6 39.6064 14.4064 38.8 15.4 38.8H20.8C21.7936 38.8 22.6 39.6064 22.6 40.6C22.6 41.5936 21.7936 42.4 20.8 42.4ZM22.6 35.2H13.6C11.611 35.2 10 36.811 10 38.8V42.4C10 44.389 11.611 46 13.6 46H22.6C24.589 46 26.2 44.389 26.2 42.4V38.8C26.2 36.811 24.589 35.2 22.6 35.2ZM40.6 17.2H35.2C34.2064 17.2 33.4 16.3936 33.4 15.4C33.4 14.4064 34.2064 13.6 35.2 13.6H40.6C41.5936 13.6 42.4 14.4064 42.4 15.4C42.4 16.3936 41.5936 17.2 40.6 17.2ZM42.4 10H33.4C31.411 10 29.8 11.611 29.8 13.6V17.2C29.8 19.189 31.411 20.8 33.4 20.8H42.4C44.389 20.8 46 19.189 46 17.2V13.6C46 11.611 44.389 10 42.4 10ZM42.4 40.6C42.4 41.5936 41.5936 42.4 40.6 42.4H35.2C34.2064 42.4 33.4 41.5936 33.4 40.6V29.8C33.4 28.8064 34.2064 28 35.2 28H40.6C41.5936 28 42.4 28.8064 42.4 29.8V40.6ZM42.4 24.4H33.4C31.411 24.4 29.8 26.011 29.8 28V42.4C29.8 44.389 31.411 46 33.4 46H42.4C44.389 46 46 44.389 46 42.4V28C46 26.011 44.389 24.4 42.4 24.4ZM22.6 26.2C22.6 27.1936 21.7936 28 20.8 28H15.4C14.4064 28 13.6 27.1936 13.6 26.2V15.4C13.6 14.4064 14.4064 13.6 15.4 13.6H20.8C21.7936 13.6 22.6 14.4064 22.6 15.4V26.2ZM22.6 10H13.6C11.611 10 10 11.611 10 13.6V28C10 29.989 11.611 31.6 13.6 31.6H22.6C24.589 31.6 26.2 29.989 26.2 28V13.6C26.2 11.611 24.589 10 22.6 10Z" fill="#113356"/>
</svg>
